<svg xmlns="http://www.w3.org/2000/svg" version="1.1" xmlns:xlink="http://www.w3.org/1999/xlink" xmlns:svgjs="http://svgjs.dev/svgjs" width="1000" height="1000" viewBox="0 0 1000 1000"><rect width="1000" height="1000" fill="#000000"></rect><g transform="matrix(0.7,0,0,0.7,149.57575757575756,282.1265587044535)"><svg viewBox="0 0 396 247" data-background-color="#212121" preserveAspectRatio="xMidYMid meet" height="623" width="1000" xmlns="http://www.w3.org/2000/svg" xmlns:xlink="http://www.w3.org/1999/xlink"><g id="tight-bounds" transform="matrix(1,0,0,1,0.2400000000000091,-0.09999999999999432)"><svg viewBox="0 0 395.52 247.2" height="247.2" width="395.52"><g><svg></svg></g><g><svg viewBox="0 0 395.52 247.2" height="247.2" width="395.52"><g mask="url(#7a4850bd-c0e7-4374-9727-f63174a7a620)"><g><path xmlns="http://www.w3.org/2000/svg" d="M158.408 215.421h-104.939v-26.234h-26.234v-26.235h-26.235v-78.704h26.235v-26.235h26.234v-26.234h104.939v26.234h26.235v26.235h-52.47v-26.235h-52.469v26.235h-26.235v78.704h26.235v26.235h52.469v-26.235h52.47v26.235h-26.235zM394.52 215.421h-183.643v-183.642h183.643v26.234h-131.173v52.47h104.938v26.234h-104.938v52.47h131.173z" fill="#ffffff" fill-rule="nonzero" stroke="none" stroke-width="1" stroke-linecap="butt" stroke-linejoin="miter" stroke-miterlimit="10" stroke-dasharray="" stroke-dashoffset="0" font-family="none" font-weight="none" font-size="none" text-anchor="none" style="mix-blend-mode: normal" data-fill-palette-color="tertiary"></path></g></g><g transform="matrix(1,0,0,1,0,106.83421965317919)"><svg viewBox="0 0 395.52 33.531560693641616" height="33.531560693641616" width="395.52"><g><svg viewBox="0 0 395.52 33.531560693641616" height="33.531560693641616" width="395.52"><g><svg viewBox="0 0 395.52 33.531560693641616" height="33.531560693641616" width="395.52"><g><svg viewBox="0 0 395.52 33.531560693641616" height="33.531560693641616" width="395.52"><g id="textblocktransform"><svg viewBox="0 0 395.52 33.531560693641616" height="33.531560693641616" width="395.52" id="textblock"><g><svg viewBox="0 0 395.52 33.531560693641616" height="33.531560693641616" width="395.52"><g transform="matrix(1,0,0,1,0,0)"><svg width="395.52" viewBox="-3 -53 649.719970703125 49.75" height="33.531560693641616" data-palette-color="#e4e4e4"><path d="M43.75-6.25L6.25-6.25 6.25-12.5 0-12.5 0-31.25 6.25-31.25 6.25-37.5 43.75-37.5 43.75-31.25 12.5-31.25 12.5-12.5 43.75-12.5 43.75-6.25ZM62.5-6.25L50-6.25 50-50 62.5-50 62.5-37.5 87.5-37.5 87.5-31.25 93.75-31.25 93.75-6.25 81.25-6.25 81.25-31.25 62.5-31.25 62.5-6.25ZM137.5-6.25L106.25-6.25 106.25-12.5 100-12.5 100-31.25 106.25-31.25 106.25-37.5 137.5-37.5 137.5-31.25 143.75-31.25 143.75-12.5 137.5-12.5 137.5-6.25ZM112.5-31.25L112.5-12.5 131.25-12.5 131.25-31.25 112.5-31.25ZM193.74-6.25L156.24-6.25 156.24-12.5 149.99-12.5 149.99-18.75 156.24-18.75 156.24-25 181.24-25 181.24-31.25 156.24-31.25 156.24-37.5 187.49-37.5 187.49-31.25 193.74-31.25 193.74-6.25ZM162.49-18.75L162.49-12.5 181.24-12.5 181.24-18.75 162.49-18.75ZM231.24-43.75L218.74-43.75 218.74-50 231.24-50 231.24-43.75ZM243.74-6.25L206.24-6.25 206.24-12.5 218.74-12.5 218.74-31.25 212.49-31.25 212.49-37.5 231.24-37.5 231.24-12.5 243.74-12.5 243.74-6.25ZM287.49-6.25L256.24-6.25 256.24-12.5 249.99-12.5 249.99-50 262.49-50 262.49-37.5 287.49-37.5 287.49-31.25 293.74-31.25 293.74-12.5 287.49-12.5 287.49-6.25ZM262.49-31.25L262.49-12.5 281.24-12.5 281.24-31.25 262.49-31.25ZM387.48-6.25L356.23-6.25 356.23-12.5 349.98-12.5 349.98-31.25 356.23-31.25 356.23-37.5 387.48-37.5 387.48-31.25 393.73-31.25 393.73-18.75 362.48-18.75 362.48-12.5 387.48-12.5 387.48-6.25ZM362.48-31.25L362.48-25 381.23-25 381.23-31.25 362.48-31.25ZM443.73-6.25L406.23-6.25 406.23-12.5 418.73-12.5 418.73-43.75 412.48-43.75 412.48-50 431.23-50 431.23-12.5 443.73-12.5 443.73-6.25ZM456.23-6.25L449.98-6.25 449.98-37.5 487.48-37.5 487.48-31.25 493.73-31.25 493.73-6.25 481.23-6.25 481.23-31.25 474.98-31.25 474.98-6.25 462.48-6.25 462.48-31.25 456.23-31.25 456.23-6.25ZM543.73-6.25L506.23-6.25 506.23-12.5 499.98-12.5 499.98-18.75 506.23-18.75 506.23-25 531.23-25 531.23-31.25 506.23-31.25 506.23-37.5 537.48-37.5 537.48-31.25 543.73-31.25 543.73-6.25ZM512.48-18.75L512.48-12.5 531.23-12.5 531.23-18.75 512.48-18.75ZM593.72-6.25L556.22-6.25 556.22-12.5 549.97-12.5 549.97-31.25 556.22-31.25 556.22-37.5 581.22-37.5 581.22-50 593.72-50 593.72-6.25ZM562.47-31.25L562.47-12.5 581.22-12.5 581.22-31.25 562.47-31.25ZM631.22-43.75L618.72-43.75 618.72-50 631.22-50 631.22-43.75ZM643.72-6.25L606.22-6.25 606.22-12.5 618.72-12.5 618.72-31.25 612.47-31.25 612.47-37.5 631.22-37.5 631.22-12.5 643.72-12.5 643.72-6.25Z" opacity="1" transform="matrix(1,0,0,1,0,0)" fill="#ffffff" class="undefined-text-0" data-fill-palette-color="primary" id="text-0"></path></svg></g></svg></g></svg></g></svg></g></svg></g></svg></g></svg></g></svg></g><defs><mask id="7a4850bd-c0e7-4374-9727-f63174a7a620"><rect width="395.52" height="247.2" fill="white"></rect><g transform="matrix(1,0,0,1,0,106.83421965317919)" id="clone"><svg viewBox="0 0 395.52 33.531560693641616" height="33.531560693641616" width="395.52"><g><svg viewBox="0 0 395.52 33.531560693641616" height="33.531560693641616" width="395.52"><g><svg viewBox="0 0 395.52 33.531560693641616" height="33.531560693641616" width="395.52"><g><svg viewBox="0 0 395.52 33.531560693641616" height="33.531560693641616" width="395.52"><g id="SvgjsG1358"><svg viewBox="0 0 395.52 33.531560693641616" height="33.531560693641616" width="395.52" id="SvgjsSvg1357"><g><svg viewBox="0 0 395.52 33.531560693641616" height="33.531560693641616" width="395.52"><g transform="matrix(1,0,0,1,0,0)"><svg width="395.52" viewBox="-3 -53 649.719970703125 49.75" height="33.531560693641616" data-palette-color="#e4e4e4"><path d="M43.75-6.25L6.25-6.25 6.25-12.5 0-12.5 0-31.25 6.25-31.25 6.25-37.5 43.75-37.5 43.75-31.25 12.5-31.25 12.5-12.5 43.75-12.5 43.75-6.25ZM62.5-6.25L50-6.25 50-50 62.5-50 62.5-37.5 87.5-37.5 87.5-31.25 93.75-31.25 93.75-6.25 81.25-6.25 81.25-31.25 62.5-31.25 62.5-6.25ZM137.5-6.25L106.25-6.25 106.25-12.5 100-12.5 100-31.25 106.25-31.25 106.25-37.5 137.5-37.5 137.5-31.25 143.75-31.25 143.75-12.5 137.5-12.5 137.5-6.25ZM112.5-31.25L112.5-12.5 131.25-12.5 131.25-31.25 112.5-31.25ZM193.74-6.25L156.24-6.25 156.24-12.5 149.99-12.5 149.99-18.75 156.24-18.75 156.24-25 181.24-25 181.24-31.25 156.24-31.25 156.24-37.5 187.49-37.5 187.49-31.25 193.74-31.25 193.74-6.25ZM162.49-18.75L162.49-12.5 181.24-12.5 181.24-18.75 162.49-18.75ZM231.24-43.75L218.74-43.75 218.74-50 231.24-50 231.24-43.75ZM243.74-6.25L206.24-6.25 206.24-12.5 218.74-12.5 218.74-31.25 212.49-31.25 212.49-37.5 231.24-37.5 231.24-12.5 243.74-12.5 243.74-6.25ZM287.49-6.25L256.24-6.25 256.24-12.5 249.99-12.5 249.99-50 262.49-50 262.49-37.5 287.49-37.5 287.49-31.25 293.74-31.25 293.74-12.5 287.49-12.5 287.49-6.25ZM262.49-31.25L262.49-12.5 281.24-12.5 281.24-31.25 262.49-31.25ZM387.48-6.25L356.23-6.25 356.23-12.5 349.98-12.5 349.98-31.25 356.23-31.25 356.23-37.5 387.48-37.5 387.48-31.25 393.73-31.25 393.73-18.75 362.48-18.75 362.48-12.5 387.48-12.5 387.48-6.25ZM362.48-31.25L362.48-25 381.23-25 381.23-31.25 362.48-31.25ZM443.73-6.25L406.23-6.25 406.23-12.5 418.73-12.5 418.73-43.75 412.48-43.75 412.48-50 431.23-50 431.23-12.5 443.73-12.5 443.73-6.25ZM456.23-6.25L449.98-6.25 449.98-37.5 487.48-37.5 487.48-31.25 493.73-31.25 493.73-6.25 481.23-6.25 481.23-31.25 474.98-31.25 474.98-6.25 462.48-6.25 462.48-31.25 456.23-31.25 456.23-6.25ZM543.73-6.25L506.23-6.25 506.23-12.5 499.98-12.5 499.98-18.75 506.23-18.75 506.23-25 531.23-25 531.23-31.25 506.23-31.25 506.23-37.5 537.48-37.5 537.48-31.25 543.73-31.25 543.73-6.25ZM512.48-18.75L512.48-12.5 531.23-12.5 531.23-18.75 512.48-18.75ZM593.72-6.25L556.22-6.25 556.22-12.5 549.97-12.5 549.97-31.25 556.22-31.25 556.22-37.5 581.22-37.5 581.22-50 593.72-50 593.72-6.25ZM562.47-31.25L562.47-12.5 581.22-12.5 581.22-31.25 562.47-31.25ZM631.22-43.75L618.72-43.75 618.72-50 631.22-50 631.22-43.75ZM643.72-6.25L606.22-6.25 606.22-12.5 618.72-12.5 618.72-31.25 612.47-31.25 612.47-37.5 631.22-37.5 631.22-12.5 643.72-12.5 643.72-6.25Z" opacity="1" transform="matrix(1,0,0,1,0,0)" fill="#ffffff" class="undefined-text-0" data-fill-palette-color="primary" id="SvgjsPath1356" stroke-width="5" stroke="black" stroke-linejoin="round"></path></svg></g></svg></g></svg></g></svg></g></svg></g></svg></g></svg></g></mask></defs></svg><rect width="395.52" height="247.2" fill="none" stroke="none" visibility="hidden"></rect></g></svg></g></svg>